<?xml version="1.0" encoding="UTF-8" standalone="no"?>
<svg xmlns="http://www.w3.org/2000/svg" xmlns:xlink="http://www.w3.org/1999/xlink" width="469" height="520">
  <defs><path id="Stars" d="M209.728,351.313L224.496,362.283L218.729,379.843L233.637,369.068L248.414,380.025H248.414L242.86,362.396L257.76,351.61L239.418,351.489L233.851,333.865L228.069,351.419Z
M216.081,176.635C216.046,185.16,219.574,203.142,226.095,209.972L249.406,209.907C254.089,205.822,254.547,181.266,251.634,172.213C248.908,167.945,245.637,164.981,245.55,161.318C245.017,155.72,252.376,147.564,253.732,146.029C258.62,140.888,234.276,151.328,228.361,159.068C226.248,161.069,224.467,160.192,226.669,158.515C225.535,155.091,216.292,165.219,216.081,176.635Z
M204.589,208.326C208.872,211.226,217.692,209.972,222.669,209.972C215.339,196.67,208.673,180.01,206.153,163.83C202.925,174.063,192.958,200.45,204.589,208.326Z
M199.982,213.018V220.251H269.047V213.018Z
M207.49,225.559C212.645,233.315,223.289,260.787,221.43,269.551L248.203,269.599C245.516,260.939,255.933,233.099,260.213,225.879Z
M217.999,272.164V278.766H251.03V272.164Z
M225.565,381.239C225.841,399.907,225.41,421.67,233.014,438.7H236.016C244.206,422.308,241.053,399.09,240.577,380.549L233.639,375.404L225.565,381.239Z
M222.504,281.012L227.193,338.619L233.987,317.988L241.308,341.161L242.411,335.985L246.526,281.012Z
M18.7175,307.784L33.4856,318.754L27.718,336.313L42.6265,325.539L57.4031,336.496L51.8491,318.867L66.7493,308.081L48.4077,307.96L42.8398,290.336L37.0586,307.89Z
M74.1863,377.761L88.9543,388.731L83.1868,406.291L98.0952,395.516L112.872,406.473L107.318,388.844L122.218,378.058L103.876,377.937L98.3086,360.313L92.5273,377.867Z
M343.526,377.761L358.294,388.731L352.527,406.291L367.435,395.516L382.212,406.473L376.658,388.844L391.558,378.058L373.217,377.937L367.649,360.313L361.867,377.867Z
M155.389,427.902L170.157,438.872L164.39,456.431L179.298,445.656L194.075,456.614L188.521,438.985L203.404,428.199L185.079,428.078L179.511,410.454L173.73,428.008Z
M259.465,427.902L274.233,438.872L268.466,456.431L283.374,445.656L298.151,456.614L292.597,438.985L307.497,428.199L289.156,428.078L283.588,410.454L277.806,428.008Z
M296.784,318.253L311.552,329.223L305.785,346.782L320.693,335.985L335.47,346.965L329.916,329.336L344.816,318.55L326.474,318.429L320.906,300.805L315.125,318.359Z
M122.073,317.702L136.841,328.672L131.074,346.231L145.982,335.457L160.759,346.414L155.205,328.785L170.105,317.988L151.763,317.878L146.196,300.254L140.414,317.808Z
M400.139,307.784L414.907,318.754L409.14,336.313L424.048,325.539L438.825,336.496L433.271,318.867L448.171,308.081L429.829,307.96L424.261,290.336L418.48,307.89Z
M415.007,210.256L429.775,221.226L424.008,238.785L438.916,228.01L453.693,238.968L448.139,221.339L463.039,210.553L444.698,210.432L439.13,192.808L433.348,210.362Z
M338.38,234.093L353.148,245.062L347.381,262.622L362.289,251.847L377.066,262.804L371.512,245.176L386.412,234.389L368.071,234.268L362.503,216.644L356.721,234.198Z
M378.409,123.198L393.177,134.168L387.41,151.728L402.318,140.953L417.095,151.91L411.541,134.281L426.441,123.495L408.099,123.374L402.531,105.75L396.75,123.304Z
M306.356,62.5886L321.124,73.5583L315.357,91.1177L330.265,80.3428L345.042,91.3005L339.488,73.6716L354.388,62.885L336.046,62.7644L330.479,45.1399L324.697,62.6946Z
M207.999,32.8347L222.767,43.8044L217,61.3638L231.908,50.5889L246.685,61.5466L241.131,43.9177L256.031,33.1311L237.689,33.0105L232.122,15.386L226.34,32.9407Z
M111.928,62.5886L126.696,73.5583L120.929,91.1177L135.837,80.3428L150.614,91.3005L145.06,73.6716L159.96,62.885L141.618,62.7644L136.051,45.1399L130.269,62.6946Z
M45.0225,123.198L59.7905,134.168L54.0229,151.728L68.9314,140.953L83.708,151.91L78.1541,134.281L93.0542,123.495L74.7126,123.374L69.1448,105.75L63.3635,123.304Z
M85.6233,235.195L100.391,246.165L94.6238,263.724L109.532,252.949L124.309,263.907L118.755,246.278L133.655,235.492L115.313,235.371L109.746,217.747L103.964,235.301Z
M4.99316,210.256L19.7612,221.226L13.9937,238.785L28.9021,228.01L43.6787,238.968L38.1248,221.339L53.0249,210.553L34.6833,210.432L29.1155,192.808L23.3342,210.362Z
M201.52,102.997L220.332,116.97L212.985,139.338L231.976,125.612L250.799,139.571L243.724,117.115L262.704,103.374L239.34,103.221L232.248,80.77L224.883,103.132Z
M252.731,209.907H265.497C269.35,207.419,271.782,198.024,272.573,178.945L269.728,180.551L268.231,180.415L260.596,162.375C253.07,168.974,259.922,202.075,252.731,209.907Z"/>
<clipPath id="clip1"><use xlink:href="#Stars"/></clipPath></defs>
  <path style="fill:#101195;stroke:#000000;stroke-width:2.096;stroke-linejoin:round"
     d="M48,501.149L48.4258,502.361L49.3096,503.18L49.8994,503.999L50.8818,506.701L51.2256,507.323L51.7822,507.88L52.3555,508.191L54.8281,509.19L55.0576,509.926L54.5176,510.909L53.3057,511.367L51.6191,511.171L49.5723,510.188L48.6875,510.991L48.7529,511.973L50.0469,513.48L50.833,513.987L51.75,513.955L53.1094,513.087L54.124,512.907C54.8848,513.574,54.7832,513.313,54.8447,514.2L55.9092,513.873L57.252,514.135L59.9375,515.641L61.624,517.606L62.2627,517.721L63.0654,517.279L64.0146,515.15L64.457,514.249L66.7168,513.201L67.0605,512.039L66.668,509.304L66.4219,508.567L65.9639,507.781L64.752,506.602L63.6709,505.079L63.3926,503.999L63.4912,502.902L64.1621,501.788C64.8193,501.113,64.5391,501.475,67.0771,498.055L67.8467,497.76L69.3691,498.087L70.123,498.66L71.0557,499.823L71.4814,500.986L72.0713,501.985L73.1523,503.033L73.2012,503.589L74.249,504.343L76.46,504.506L78.1465,504.441L78.8506,504.179L80.0947,503.098L81.29,502.394L83.3867,501.968L84.5488,502.247C84.8164,502.241,85.084,502.236,85.3516,502.23L87.415,501.477L88.7734,500.806L89.5596,501.068L90.5098,502.197L90.5264,503.327L90.6729,503.966L90.3789,504.637L89.4775,505.685L88.8721,506.979L88.8389,508.191L88.9863,509.059L89.249,509.763L90.0508,510.549L91.7217,510.827L93.375,510.663L95.0947,510.156L95.668,509.779L97.0918,508.06L97.9932,506.308L98.0254,505.325L97.665,503.426L97.3711,502.541L94.8486,500.413L94.2754,499.119L94.0791,498.366L94.0957,497.743L94.5049,496.908L96.2734,494.96L96.5029,493.812L96.4209,493.044L97.1738,491.767C97.4639,491.718,97.7529,491.668,98.042,491.619C99.4053,492.286,99.3008,492.507,99.499,493.584L99.4834,494.747L99.9746,496.04L100.711,497.17L101.71,498.12L103.609,499.266L104.707,499.725L105.886,500.478L106.508,500.134L109.03,497.874L110.372,496.81L111.764,495.942L112.73,495.68L114.974,495.5L116.219,495.811L118.232,496.564L121.933,499.905L124.635,500.691L126.403,501.641L128.843,503.409L130.595,505.309L134.1,507.749L135.803,508.387L137.882,508.747L139.225,508.633L139.946,508.944L140.666,509.714L142.091,512.252L142.451,513.234L142.778,515.15L143.04,515.771L144.27,516.312L145.218,516.28L146.397,515.969L147.134,515.543L148.1,514.773L149.214,513.349L149.787,511.433L150.213,510.532L150.917,507.208L151.474,505.734L151.555,504.228L151.293,502.918
V502.378L151.654,501.575L152.522,500.494L154.044,499.381L157.812,497.465L158.973,497.154L161.233,497.056L163.722,496.646L165.376,495.435L166.604,493.961L167.03,493.191L168.012,492.241L169.52,490.506L170.272,489.998L173.482,488.639L174.104,488.77L175.119,489.523L175.938,489.949L176.396,491.144L176.707,492.536L177.428,493.699C177.428,493.89,177.428,494.081,177.428,494.272L178.034,495.254L178.395,496.221L180.294,499.725L182.209,502.099L183.618,502.181L184.551,501.575L187.188,499.414C187.444,499.419,187.7,499.425,187.957,499.43L190.544,500.363L190.724,500.92
V501.771L190.299,503.131L189.365,505.177L189.071,506.094L188.94,506.848L188.989,507.404L189.693,508.682L190.381,508.812L191.347,508.666L192.558,508.076L194.589,506.717L195.359,505.145L195.146,504.555L195.26,503.311L195.08,500.625L195.277,499.823L196.194,498.627L196.75,498.448L198.404,498.496L200.14,499.053L201.548,499.151L203.71,498.071L204.201,497.514
V496.679L203.972,495.909L202.891,494.387L202.416,492.618L202.482,490.227L202.367,488.77L202.514,486.182L202.449,485.003L202.76,483.645L203.202,483.104L203.743,482.875L204.905,482.711L208.164,482.597L209.588,482.105L210.98,480.844L211.586,479.632L211.766,478.519L211.39,477.471L210.702,477.012L209.736,476.718L208.95,476.243L208.459,475.637L208.213,474.916L208.164,474.278L208.508,473.312L209.114,472.641L209.834,472.312L211.406,472.379L213.044,473.623L214.566,475.097L215.287,474.491L215.533,473.475L215.975,472.624L217.154,471.871L219.397,472.149L220.789,472.117L221.526,471.789L222.083,471.069L222.443,469.824L222.001,468.842L220.511,468.219L218.087,467.842L217.514,467.482L216.908,466.484L216.826,465.517L217.088,464.158L217.579,463.569L219.021,463.192L220.036,463.765L222.738,466.434L224.391,467.335L225.604,468.219L227.306,470.938L227.372,471.92L226.635,475.965L226.684,477.864L227.24,480.173L227.797,481.254L228.354,481.827L229.91,482.826L231.023,483.612L231.842,484.316L232.366,484.987L236.41,487.1L237.573,487.296L240.145,486.576L241.471,486.51L243.386,486.838L244.598,487.411L246.399,488.901L247.742,491.865L248.562,493.044L249.248,493.748L250.329,493.65C250.433,493.459,250.537,493.268,250.641,493.077L250.722,492.34L250.558,490.506L251.099,489.49L251.967,489.048L253.113,488.754L258.992,487.656L260.252,486.805L261.35,485.446L261.693,484.578L261.841,483.857L262.25,480.075L263.282,476.521L263.331,474.868L262.889,470.397L262.987,468.188L263.2,467.008L263.904,465.288L265.247,463.192L266.115,462.111L268.687,459.852L269.488,458.509L269.832,457.445L269.946,454.874L270.798,453.138L271.846,452.434L273.68,452.074L274.4,451.648L275.514,451.697L276.251,451.991L276.922,453.072L277.463,453.727L278.445,454.333L279.051,454.415L285.062,450.796L285.912,450.059L286.354,449.093L287.533,447.587L288.008,446.751L289.465,442.363L289.498,439.972L290.153,437.45L290.972,435.6L291.234,434.438L292.74,432.26L293.937,431.392L294.82,430.917L295.688,430.655L298.03,430.507L300.109,430.164L301.452,429.64L303.204,428.723L303.941,427.904L304.776,426.496L305.284,424.874L305.824,423.859L306.774,423.057L309.591,421.665L310.639,420.617L311.048,419.815L311.359,418.717C311.354,417.986,311.348,417.254,311.342,416.523L310.949,415.246L309.476,412.315L309.181,411.414C309.033,410.438,309.053,410.921,309.034,408.942L309.23,405.536L309.116,404.307L308.526,402.932L307.462,401.409L307.314,400.492L307.806,397.921L309.46,395.449L310.753,394.663L311.85,394.384L315.256,395.137L316.468,395.22L322.15,393.795C322.696,393.762,323.242,393.729,323.788,393.696L325.147,393.844L326.784,394.286L328.029,395.072L328.88,396.349L329.273,397.266L329.994,398.396L331.255,399.69L332.123,400.181L333.596,400.705L335.201,400.639L336.871,400.099L338.574,399.215L341.702,396.447L342.275,395.678L344.125,394.581L345.141,393.795L347.646,392.845L349.022,391.764L351.052,390.585L352.902,389.062L354.278,388.948L357.848,389.488L358.797,389.21L360.533,388.375L362.629,387.13L363.268,386.999L364.365,387.31L366.264,387.589L369.032,388.473C369.316,388.468,369.599,388.462,369.883,388.457L370.506,388.211L370.718,387.343L370.473,386.295L369.818,384.887L369.196,383.938C368.819,382.764,368.919,383.178,368.901,382.414L369.539,381.317L371.521,379.843L372.716,378.583L373.207,377.436L373.355,376.699L373.273,376.044L372.503,375.16L371.604,374.571L370.587,374.178L368.835,373.899C368.038,373.895,367.242,373.888,366.445,373.883L364.905,373.441L364.267,372.409L364.054,371.492L364.267,370.788L365.397,369.183L366.297,368.365L367.001,367.366L367.64,366.924L368.491,366.023L368.884,364.189L368.541,363.141L368.066,362.06L367.132,361.012L366.838,360.243L365.233,357.852L364.66,357.213C364.338,356.951,364.016,356.689,363.694,356.427L363.202,355.739L362.253,353.594L362.482,352.972L363.12,352.284L365.888,350.794L366.969,349.484L368.786,347.748L369.867,347.29
V328.639L370.375,288.258L370.44,256.785L370.735,233.566L371.472,194.282L371.406,181.444L371.635,144.633L371.488,105.415L371.455,52.6221L371.226,19.0039L371.259,8.06543L280.689,8.21289L243.337,8L195.915,8.14746L174.742,8.0166C174.589,8.14355,174.397,8.23828,172.974,9.04785L170.895,9.86719L168.111,11.7822C167.516,11.9844,166.921,12.1865,166.326,12.3887L165.245,13.0928L164.082,14.582L161.986,15.3359L155.584,18.2676L149.05,21.5742C147.096,22.1533,145.142,22.7324,143.188,23.3105L142.631,23.6377L142.156,24.8828L141.599,24.0312L141.092,25.5049L140.732,24.1455L139.094,24.8662L137.326,25.3906L134.001,25.9795L126.534,26.2422L125.438,26.1602L124.651,25.5049L123.636,25.3086L120.476,25.0469L118.216,24.0967L116.759,23.7529L116.071,23.0811L114.499,22.623L113.762,22.1152L114.057,21.2637L116.333,20.1826L116.202,19.2002L114.335,18.0869L113.533,19.1025C113.571,19.3584,113.609,19.6152,113.647,19.8721L113.009,19.6758L112.779,18.2012L111.928,18.791L110.782,19.25L108.129,17.3496L107.245,16.9902L106.459,16.1709L105.902,14.9268L105.312,14.4678C105.258,13.5752,105.267,13.8721,105.247,12.9775L104.739,12.0283L104.346,10.0137L104.248,15.0078L104.199,30.335L104.297,32.9229L104.167,39.5869L104.248,40.2754L104.084,65.8037L104.183,126.146L104.133,168.36L103.593,214.554L103.446,260.339L103.626,304.862L104.985,304.584L103.626,304.895C103.62,308.699,103.615,312.504,103.609,316.308L103.053,315.768L101.972,316.062L101.366,317.275L100.564,317.455L99.4336,317.145L97.9434,318.11L96.3066,321.008L95.6514,321.336L94.8984,321.499L94.8818,322.072L95.5039,322.318L96.3555,322.023L97.125,322.908L96.0283,324.136L95.8965,324.709C96.0791,325.499,95.8838,325.267,96.748,325.708L96.3389,327.395L97.0762,328.311L98.0254,328.999L98.6152,328.197L99.6797,328.491C99.5801,329.146,99.7119,328.916,98.9268,329.703L99.3682,332.159L99.1387,333.797L98.3535,334.55L98.2881,335.156L97.4521,335.86L96.7158,336.171L96.2734,337.121L95.6025,337.236L94.7666,337.53L94.4229,339.135L92.917,339.463L92.8184,340.265L94.1611,340.969L93.6211,341.215L92.7363,340.691L91.7051,341.673L91.6562,342.377L91.165,343.098L91.459,343.868C91.8574,344.026,92.2559,344.184,92.6543,344.342L92.7363,345.03L93.4404,345.178L92.8838,346.16L91.7705,346.013L91.7051,347.126L92.2783,347.438L93.0967,347.241L95.3398,347.568L95.4707,348.271L94.8818,349.075L94.8984,349.713L95.4873,350.319L97.2559,350.581L97.7148,351.416L98.501,352.104L98.9756,352.89L99.5811,353.463L99.5977,354.315L98.9102,355.854L99.3359,356.411L99.8594,358.294L99.4668,359.669L98.9258,360.57C99.2578,361.319,98.9941,361.059,100.007,361.585L100.613,361.503L100.432,362.191L99.041,361.962L99.2861,362.535L101.988,363.518L102.528,363.895L103.806,364.369L104.314,365.499L105.509,366.596L105.378,367.317L104.624,368.577L105.067,369.265C104.504,371.124,104.939,370.656,103.986,371.099L104.15,371.82L104.314,372.884L104.937,373.212L103.397,373.424L103.118,374.112L103.331,374.653L103.183,375.209L102.365,374.178
V374.964L102.938,375.357L103.085,376.438L102.037,377.06L102.463,377.649C102.19,378.337,102.35,378.196,101.595,378.632L102.758,379.336L104.166,380.089L104.084,381.399L104.576,382.922L104.02,384.02L104.821,384.985L105.902,386.885L106.589,387.425L107.146,388.293L106.835,389.341L106.279,389.685L105.41,389.75L105.689,390.52L107.015,390.569L106.312,392.91L106.95,394.188L106.098,394.794L105.869,395.809L105.067,397.021L104.788,397.774L104.543,399.952L103.626,401.146L102.234,401.966L98.9102,402.621L97.5176,403.276L96.8633,403.914L96.6006,404.684L96.585,405.339L95.9131,406.24L94.8984,406.829
V407.501L95.3242,408.32C95.1846,409.196,95.3232,408.901,94.6523,409.711L94.8818,410.333C94.6582,410.617,94.4336,410.901,94.21,411.185L94.9795,412.544L95.8154,412.822L95.4551,413.477C95.04,413.472,94.625,413.466,94.21,413.461L93.1133,412.888L92.9326,413.691L92.835,415.344L91.8682,415.836L91.7051,416.425L91.9014,417.473L90.46,418.292L90.1328,419.405L90.9023,420.552L91.0332,421.256L91.377,421.894L92.4258,422.893L92.2939,423.679L91.7373,424.252L91.1641,424.449L90.624,424.285L89.8213,423.679L88.8066,425.35L87.7256,426.185L85.6787,427.233L84.123,427.184L82.6826,427.56L82.1582,428.312L81.4873,429.967L82.0107,430.508L83.0918,430.442L83.9268,430.95L84.0576,431.965L83.0264,432.898L82.8623,433.946L82.6172,436.288L80.2256,439.907L79.2109,441.168L78.6045,441.577L76.6562,442.15L75.8867,443.346L75.002,444.23L74.6426,445.54L74.0361,447.046L73.9707,448.225L74.2324,449.83L74.1514,450.633L73.6592,452.074L73.2178,452.761L72.2354,453.4L71.1709,452.958L70.7285,451.5C70.7773,451.271,70.8262,451.042,70.876,450.812L71.3018,449.535L70.9414,448.848L70.3193,448.668L69.4512,449.388L68.6328,452.106L67.7158,452.761L66.4385,454.301C65.5723,454.033,65.7959,454.199,65.5049,453.482L65.6846,452.86L66.6514,451.091C65.9453,450.314,66.2441,450.372,65.3252,450.305L63.998,450.845L63.6709,451.451L63.1143,452.958L62.2949,453.564L62.3936,454.219L63.2451,454.906L62.9014,455.922L62.1318,456.216L61.6406,457.035L61.7383,457.87L61.1162,458.362L60.5107,458.001L60.3301,456.986L59.3975,455.791L58.8076,455.954L59.2656,456.593L59.5938,457.674L59.5439,458.378L59.1025,459.328L59.0205,460.703L59.1846,461.833L59.8066,463.028L60.5596,464.044L61.5908,464.993L62.9834,465.861L63.7852,466.549L64.1133,467.548L64.3584,468.58L65.0303,467.859L64.9482,466.762L65.7344,466.303L66.373,467.139L66.3564,467.777L64.8828,469.677L64.5391,470.577L63.9658,470.741L62.9668,472.379L62.0332,471.609L60.6084,471.855L60.1172,473.115L59.9541,474.556L59.2656,474.868L57.7764,474.671L56.1221,475.604L55.958,476.325L56.4824,477.733L57.3506,477.766L60.6582,476.309L61.46,475.752L61.8701,477.553L60.8213,479.977L59.6914,480.91L57.4648,481.974L54.665,481.892L53.4697,482.629L53.5352,483.792L54.2549,484.463L54.8779,484.496L56.417,484.234L56.7607,485.036C56.1006,485.394,55.4473,485.491,55.0742,487.64L55.3691,488.819L56.3672,491.488L56.3516,492.831L55.5488,493.748C55.0303,493.857,54.5117,493.966,53.9932,494.075L54.0586,495.877L54.6318,497.367C54.2051,498.102,54.3682,497.946,53.7148,498.235L52.749,497.858L51.9951,496.974L50.9639,497.465L50.7842,498.038L51.21,498.824L51.7822,499.135L54.3701,499.594L55.6475,499.676L55.8604,500.986L56.2861,502.116L55.9424,502.721L55.1719,502.754L54.5498,502.23L53.1904,502.443
H52.1758L51.5039,502.116L50.5869,501.87L49.1465,500.609C48.835,500.604,48.5234,500.598,48.2129,500.593Z"/>
<g clip-path="url(#clip1)"><use xlink:href="#Stars" style="fill:#ffe700"/>
<use xlink:href="#Stars" style="fill:none;stroke:#000000;stroke-width:3.3"/></g>
<path style="fill:#ffe700;stroke:#000000;stroke-width:1.65;stroke-linejoin:round" d="M230.807,148.735H233.726L233.987,131.077H231.076Z
M283.988,167.402L284.655,172.327L378.995,140.829L378.328,135.904Z
M153.026,93.8853L200.813,152.588L203.404,149.773L155.617,91.0708Z
M91.3167,138.167L182.533,173.686L187.478,171.983L96.2617,136.464Z
M280.888,198.481L407.899,213.535L409.96,210.131L282.949,195.078Z
M60.5669,214.135L189.268,197.524L190.361,193.839L61.6602,210.432Z
M266.961,156.277L268.954,159.519L312.176,98.145L310.183,94.9036Z"/>
</svg>